<svg width="214" height="200" viewBox="0 0 214 200" fill="none" xmlns="http://www.w3.org/2000/svg">
<rect width="214" height="200" rx="100" fill="#1C1B1E"/>
<path d="M133.453 95.375C133.453 100.576 131.911 105.66 129.021 109.985C126.132 114.309 122.025 117.68 117.22 119.67C112.415 121.66 107.127 122.181 102.026 121.167C96.9249 120.152 92.2393 117.647 88.5616 113.97C84.8839 110.292 82.3794 105.606 81.3647 100.505C80.35 95.4042 80.8708 90.1167 82.8611 85.3116C84.8515 80.5065 88.222 76.3995 92.5465 73.5099C96.871 70.6204 101.955 69.0781 107.156 69.0781C114.128 69.086 120.812 71.8591 125.742 76.789C130.672 81.7189 133.445 88.4031 133.453 95.375ZM169.313 100.156C169.313 112.45 165.667 124.467 158.837 134.688C152.007 144.91 142.3 152.877 130.942 157.581C119.585 162.286 107.087 163.516 95.0302 161.118C82.9731 158.72 71.8979 152.8 63.2052 144.107C54.5125 135.415 48.5927 124.339 46.1943 112.282C43.796 100.225 45.0269 87.7277 49.7314 76.3701C54.4359 65.0125 62.4026 55.305 72.6241 48.4752C82.8457 41.6454 94.8629 38 107.156 38C123.636 38.0174 139.435 44.5716 151.088 56.2244C162.741 67.8772 169.295 83.6767 169.313 100.156ZM159.75 100.156C159.742 93.0772 158.307 86.0724 155.53 79.5608C152.753 73.0491 148.692 67.1644 143.588 62.2585C138.485 57.3526 132.444 53.5262 125.828 51.0084C119.212 48.4905 112.156 47.3327 105.082 47.6043C76.9328 48.6921 54.4848 72.1381 54.5625 100.306C54.5765 106.957 55.8556 113.485 58.2747 119.564C61.7228 128.229 73.0726 127.461 80.8594 122.329V122.329C81.2954 122.041 81.8136 121.904 82.335 121.939C82.8563 121.973 83.3519 122.178 83.7461 122.521C90.2437 128.141 98.5474 131.234 107.138 131.234C115.729 131.234 124.033 128.141 130.531 122.521C130.925 122.178 131.42 121.973 131.942 121.939C132.463 121.904 132.981 122.041 133.417 122.329V122.329C141.218 127.461 152.579 128.232 156.034 119.558C158.472 113.435 159.753 106.857 159.75 100.156Z" fill="#FF859B"/>
</svg>
