<svg width="12" height="13" viewBox="0 0 12 13" fill="none" xmlns="http://www.w3.org/2000/svg">
<g clip-path="url(#clip0_305_414)">
<path d="M9.23437 12.0729C9.15543 12.0732 9.07842 12.0486 9.01429 12.0026L5.99999 9.81724L2.98569 12.0026C2.9213 12.0493 2.84371 12.0743 2.76416 12.074C2.6846 12.0737 2.6072 12.0481 2.54315 12.0009C2.47909 11.9538 2.43169 11.8874 2.40781 11.8116C2.38393 11.7357 2.38481 11.6542 2.4103 11.5788L3.58593 8.0967L0.539054 6.00724C0.473056 5.96203 0.423245 5.89691 0.396898 5.82137C0.370552 5.74584 0.36905 5.66386 0.392613 5.58741C0.416175 5.51096 0.463567 5.44405 0.527865 5.39646C0.592162 5.34886 0.669995 5.32308 0.749991 5.32287H4.5089L5.64327 1.83185C5.66771 1.75648 5.71539 1.69079 5.77948 1.6442C5.84356 1.59761 5.92076 1.57251 5.99999 1.57251C6.07922 1.57251 6.15642 1.59761 6.22051 1.6442C6.28459 1.69079 6.33227 1.75648 6.35671 1.83185L7.49108 5.32404H11.25C11.3301 5.324 11.4081 5.34961 11.4726 5.39711C11.5371 5.44461 11.5847 5.51152 11.6084 5.58803C11.6321 5.66453 11.6307 5.74662 11.6044 5.82227C11.578 5.89792 11.5282 5.96315 11.4621 6.00841L8.41405 8.0967L9.58898 11.5779C9.60801 11.6342 9.61337 11.6943 9.6046 11.7531C9.59583 11.812 9.57319 11.8679 9.53854 11.9163C9.5039 11.9646 9.45824 12.004 9.40535 12.0313C9.35246 12.0585 9.29385 12.0728 9.23437 12.0729Z" fill="#FF859B"/>
</g>
<defs>
<clipPath id="clip0_305_414">
<rect width="12" height="12" fill="white" transform="translate(0 0.822693)"/>
</clipPath>
</defs>
</svg>
