<svg width="12" height="13" viewBox="0 0 12 13" fill="none" xmlns="http://www.w3.org/2000/svg">
<g clip-path="url(#clip0_305_406)">
<path fill-rule="evenodd" clip-rule="evenodd" d="M6.00003 1.57269C6.16248 1.57269 6.30645 1.67729 6.35667 1.83179L7.49121 5.32269H11.25C11.4144 5.32269 11.5596 5.4297 11.6082 5.58668C11.6569 5.74366 11.5976 5.91402 11.4621 6.00697L8.4148 8.09655L9.58971 11.5778C9.64189 11.7324 9.58812 11.903 9.45673 11.9997C9.32534 12.0964 9.14648 12.0971 9.01436 12.0013L6.00003 9.81705L2.98569 12.0013C2.85358 12.0971 2.67472 12.0964 2.54333 11.9997C2.41194 11.903 2.35817 11.7324 2.41034 11.5778L3.58526 8.09655L0.537955 6.00697C0.402415 5.91402 0.343185 5.74366 0.391836 5.58668C0.440488 5.4297 0.585683 5.32269 0.750028 5.32269H4.50885L5.64339 1.83179C5.6936 1.67729 5.83758 1.57269 6.00003 1.57269ZM6.00003 3.16095L5.13792 5.8136C5.0877 5.9681 4.94373 6.07269 4.78128 6.07269H1.96L4.24335 7.63842C4.38175 7.73332 4.44025 7.90861 4.38659 8.06761L3.49646 10.705L5.77999 9.05029C5.91126 8.95516 6.0888 8.95516 6.22007 9.05029L8.50359 10.705L7.61347 8.06761C7.55981 7.90861 7.61831 7.73332 7.7567 7.63842L10.0401 6.07269H7.21878C7.05633 6.07269 6.91235 5.9681 6.86214 5.8136L6.00003 3.16095Z" fill="#FF859B"/>
</g>
<defs>
<clipPath id="clip0_305_406">
<rect width="12" height="12" fill="white" transform="translate(0 0.822693)"/>
</clipPath>
</defs>
</svg>
